<svg width="17" height="17" viewBox="0 0 17 17" fill="none" xmlns="http://www.w3.org/2000/svg">
<path d="M16.2922 16.6922L10.0307 10.4307C9.53073 10.8564 8.95573 11.1859 8.30573 11.4192C7.65573 11.6526 7.00256 11.7692 6.34623 11.7692C4.74456 11.7692 3.38898 11.2148 2.27948 10.106C1.17015 8.99716 0.615479 7.64241 0.615479 6.04174C0.615479 4.44091 1.1699 3.08499 2.27873 1.97399C3.38756 0.863155 4.74231 0.307739 6.34298 0.307739C7.94381 0.307739 9.29973 0.862406 10.4107 1.97174C11.5216 3.08124 12.077 4.43682 12.077 6.03849C12.077 6.73332 11.9539 7.40574 11.7077 8.05574C11.4616 8.70574 11.1385 9.26149 10.7385 9.72299L17 15.9847L16.2922 16.6922ZM6.34623 10.7692C7.67306 10.7692 8.79323 10.3125 9.70673 9.39899C10.6202 8.48566 11.077 7.36549 11.077 6.03849C11.077 4.71149 10.6202 3.59132 9.70673 2.67799C8.79323 1.76449 7.67306 1.30774 6.34623 1.30774C5.01923 1.30774 3.89906 1.76449 2.98573 2.67799C2.07223 3.59132 1.61548 4.71149 1.61548 6.03849C1.61548 7.36549 2.07223 8.48566 2.98573 9.39899C3.89906 10.3125 5.01923 10.7692 6.34623 10.7692Z" fill="#000000"/>
</svg>
